<?xml version="1.0" encoding="UTF-8" standalone="no"?>
<!DOCTYPE svg PUBLIC "-//W3C//DTD SVG 1.1//EN" "http://www.w3.org/Graphics/SVG/1.1/DTD/svg11.dtd">
<!-- Created with Vectornator (http://vectornator.io/) -->
<svg height="100%" stroke-miterlimit="10" style="fill-rule:nonzero;clip-rule:evenodd;stroke-linecap:round;stroke-linejoin:round;" version="1.1" viewBox="0 0 5000 5000" width="100%" xml:space="preserve" xmlns="http://www.w3.org/2000/svg" xmlns:vectornator="http://vectornator.io" xmlns:xlink="http://www.w3.org/1999/xlink">
<defs>
<radialGradient cx="2393.91" cy="2002.91" gradientTransform="matrix(1 0 0 1 0 0)" gradientUnits="userSpaceOnUse" id="RadialGradient" r="4614.15">
<stop offset="0" stop-color="#ffffff"/>
<stop offset="0.764583" stop-color="#0093ff"/>
</radialGradient>
<radialGradient cx="2959.08" cy="1897.81" gradientTransform="matrix(1 0 0 1 0 0)" gradientUnits="userSpaceOnUse" id="RadialGradient_2" r="2940.57">
<stop offset="0" stop-color="#ffffff"/>
<stop offset="0.0333333" stop-color="#f5fdfd"/>
<stop offset="0.785417" stop-color="#09c7da"/>
</radialGradient>
<linearGradient gradientTransform="matrix(1 0 0 1 0 0)" gradientUnits="userSpaceOnUse" id="LinearGradient" x1="22.4863" x2="4665.04" y1="4981.93" y2="91.6165">
<stop offset="0" stop-color="#2be5fe"/>
<stop offset="0.816667" stop-color="#0038bd"/>
</linearGradient>
</defs>
<clipPath id="ArtboardFrame">
<rect height="5000" width="5000" x="0" y="0"/>
</clipPath>
<g clip-path="url(#ArtboardFrame)" id="Master-outline-copy" vectornator:layerName="Master outline copy">
<g opacity="1">
<path d="M3254.97 954.44C3707 1283.47 4003.67 1804.64 4014.71 2396.03C4029.58 3193.3 3520.99 3881.34 2796.52 4150.31C2977.23 4189.68 3165.55 4209.06 3358.93 4205.65C3888.58 4196.31 4374.4 4018.52 4763.37 3725.78C4919.67 3448.5 5006 3129.06 4999.68 2790.28C4981.68 1825.96 4219.37 1044.68 3254.97 954.44Z" fill="url(#RadialGradient)" fill-rule="nonzero" opacity="1" stroke="none"/>
<path d="M3404.77 4.54264C2211.18-71.1513 1180.47 808.128 1102.61 1968.47C1040.03 2901.15 1612.17 3731.37 2458.92 4060.62C1939.6 3651.99 1625.47 3012.77 1672.27 2315.34C1748.84 1174.3 2762.4 309.649 3936.12 384.083C4249.66 403.967 4542.89 488.892 4802.85 624.382C4443.44 271.161 3954.87 39.4285 3404.77 4.54264Z" fill="url(#RadialGradient_2)" fill-rule="nonzero" opacity="1" stroke="none"/>
<path d="M2094.04 50.7244C902.256 266.697-7.24754e-13 1282.89-7.24754e-13 2504.1C-0.000255696 3882.54 1149.47 5000 2567.4 5000C3461.63 5000 4248.92 4555.45 4708.62 3881.39C4317.48 4159.21 3835.49 4323.33 3313.97 4323.34C2006.89 4323.34 947.261 3293.26 947.261 2022.59C947.261 1185.76 1406.87 453.353 2094.04 50.7244Z" fill="url(#LinearGradient)" fill-rule="nonzero" opacity="1" stroke="none"/>
</g>
</g>
</svg>
